<?xml version="1.0" standalone="no"?><!DOCTYPE svg PUBLIC "-//W3C//DTD SVG 1.1//EN" "http://www.w3.org/Graphics/SVG/1.1/DTD/svg11.dtd"><svg t="1532505502198" class="icon" style="" viewBox="0 0 1024 1024" version="1.1" xmlns="http://www.w3.org/2000/svg" p-id="11011" xmlns:xlink="http://www.w3.org/1999/xlink" width="32" height="32"><defs><style type="text/css"></style></defs><path d="M386.048 303.197091C382.045091 307.525818 379.438545 310.318545 377.483636 312.413091 381.114182 308.503273 386.048 303.197091 386.048 303.197091zM563.805091 336.104727c13.312 16.384 19.921455 35.700364 19.921455 57.949091 0 15.918545-4.561455 31.232-13.637818 46.033455C565.108364 448.465455 558.545455 456.564364 550.353455 464.290909l-27.275636 26.949818c-26.158545 25.693091-43.054545 48.453818-50.781091 68.375273-7.726545 19.874909-11.589818 46.08-11.589818 78.568727l60.695273 0c0-28.625455 3.258182-50.269091 9.728-64.930909s20.619636-32.535273 42.449455-53.713455c30.021818-29.090909 49.943273-51.153455 59.810909-66.141091s14.848-34.536727 14.848-58.647273c0-39.749818-13.451636-72.424727-40.401455-98.024727s-62.789818-38.353455-107.566545-38.353455c-48.407273 0-86.481455 14.941091-114.222545 44.823273C358.306909 333.079273 344.436364 372.549818 344.436364 421.655273l60.695273 0c1.117091-29.556364 5.818182-52.177455 13.963636-67.863273 14.522182-28.16 40.773818-42.263273 78.754909-42.263273C528.523636 311.528727 550.539636 319.720727 563.805091 336.104727zM1024 512c0-282.763636-229.236364-512-512-512C229.236364 0 0 229.236364 0 512c0 282.763636 229.236364 512 512 512C794.763636 1024 1024 794.763636 1024 512zM46.545455 512C46.545455 254.929455 254.929455 46.545455 512 46.545455s465.454545 208.384 465.454545 465.454545-208.384 465.454545-465.454545 465.454545S46.545455 769.070545 46.545455 512zM459.310545 694.737455l67.863273 0 0 70.888727-67.863273 0 0-70.888727Z" p-id="11012"></path></svg>